<?xml version="1.0" encoding="UTF-8" standalone="no"?>
<!-- Created with Inkscape (http://www.inkscape.org/) -->

<svg
   xmlns:osb="http://www.openswatchbook.org/uri/2009/osb"
   xmlns:dc="http://purl.org/dc/elements/1.1/"
   xmlns:cc="http://creativecommons.org/ns#"
   xmlns:rdf="http://www.w3.org/1999/02/22-rdf-syntax-ns#"
   xmlns:svg="http://www.w3.org/2000/svg"
   xmlns="http://www.w3.org/2000/svg"
   xmlns:xlink="http://www.w3.org/1999/xlink"
   xmlns:sodipodi="http://sodipodi.sourceforge.net/DTD/sodipodi-0.dtd"
   xmlns:inkscape="http://www.inkscape.org/namespaces/inkscape"
   width="150"
   height="70"
   viewBox="0 0 39.687499 18.520834"
   version="1.1"
   id="svg8"
   inkscape:version="0.92.5 (2060ec1f9f, 2020-04-08)"
   sodipodi:docname="cloud.svg"
   inkscape:export-filename="C:\Git\art-blog\src\gatsby-theme-operetta\components\Logo\cloud.png"
   inkscape:export-xdpi="13.35"
   inkscape:export-ydpi="13.35">
  <defs
     id="defs2">
    <pattern
       inkscape:isstock="true"
       inkscape:stockid="Wavy white"
       id="Wavywhite"
       height="5.1805778"
       width="30.066020"
       patternUnits="userSpaceOnUse"
       inkscape:collect="always">
      <path
         id="path2168"
         d="M 7.597,0.061 C 5.079,-0.187 2.656,0.302 -0.01,1.788 L -0.01,3.061 C 2.773,1.431 5.173,1.052 7.472,1.280 C 9.770,1.508 11.969,2.361 14.253,3.218 C 18.820,4.931 23.804,6.676 30.066,3.061 L 30.062,1.788 C 23.622,5.497 19.246,3.770 14.691,2.061 C 12.413,1.207 10.115,0.311 7.597,0.061 z "
         style="fill:white;stroke:none;" />
    </pattern>
    <linearGradient
       inkscape:collect="always"
       id="linearGradient2551">
      <stop
         style="stop-color:#800080;stop-opacity:1;"
         offset="0"
         id="stop2547" />
      <stop
         style="stop-color:#800080;stop-opacity:0;"
         offset="1"
         id="stop2549" />
    </linearGradient>
    <linearGradient
       id="linearGradient2510"
       inkscape:collect="always">
      <stop
         id="stop2514"
         offset="0"
         style="stop-color:#406265;stop-opacity:1;" />
      <stop
         id="stop2516"
         offset="1"
         style="stop-color:#406265;stop-opacity:0;" />
    </linearGradient>
    <linearGradient
       id="linearGradient2277"
       osb:paint="solid">
      <stop
         style="stop-color:#000000;stop-opacity:1;"
         offset="0"
         id="stop2275" />
    </linearGradient>
    <filter
       inkscape:collect="always"
       style="color-interpolation-filters:sRGB"
       id="filter2456"
       x="-0.0124992"
       width="1.0249984"
       y="-0.025613114"
       height="1.0512262">
      <feGaussianBlur
         inkscape:collect="always"
         stdDeviation="0.86996282"
         id="feGaussianBlur2458" />
    </filter>
    <filter
       inkscape:collect="always"
       style="color-interpolation-filters:sRGB"
       id="filter2502"
       x="-0.0071424001"
       width="1.0142848"
       y="-0.014636065"
       height="1.0292721">
      <feGaussianBlur
         inkscape:collect="always"
         stdDeviation="0.49712161"
         id="feGaussianBlur2504" />
    </filter>
    <radialGradient
       inkscape:collect="always"
       xlink:href="#linearGradient2510"
       id="radialGradient2512"
       cx="84.614357"
       cy="-5.9395599"
       fx="84.614357"
       fy="-5.9395599"
       r="85.609688"
       gradientTransform="matrix(1,0,0,0.50048705,0,-2.966887)"
       gradientUnits="userSpaceOnUse" />
    <linearGradient
       inkscape:collect="always"
       xlink:href="#linearGradient2551"
       id="linearGradient2557"
       x1="-0.99533027"
       y1="-5.9395599"
       x2="170.22404"
       y2="-5.9395599"
       gradientUnits="userSpaceOnUse" />
  </defs>
  <sodipodi:namedview
     id="base"
     pagecolor="#ffffff"
     bordercolor="#666666"
     borderopacity="1.0"
     inkscape:pageopacity="0.0"
     inkscape:pageshadow="2"
     inkscape:zoom="0.7"
     inkscape:cx="146.97391"
     inkscape:cy="992.29406"
     inkscape:document-units="px"
     inkscape:current-layer="layer1"
     showgrid="false"
     inkscape:window-width="1600"
     inkscape:window-height="837"
     inkscape:window-x="-8"
     inkscape:window-y="-8"
     inkscape:window-maximized="1"
     showborder="false"
     inkscape:pagecheckerboard="true"
     units="px" />
  <metadata
     id="metadata5">
    <rdf:RDF>
      <cc:Work
         rdf:about="">
        <dc:format>image/svg+xml</dc:format>
        <dc:type
           rdf:resource="http://purl.org/dc/dcmitype/StillImage" />
        <dc:title />
        <cc:license
           rdf:resource="http://creativecommons.org/licenses/by-nc-nd/4.0/" />
      </cc:Work>
      <cc:License
         rdf:about="http://creativecommons.org/licenses/by-nc-nd/4.0/">
        <cc:permits
           rdf:resource="http://creativecommons.org/ns#Reproduction" />
        <cc:permits
           rdf:resource="http://creativecommons.org/ns#Distribution" />
        <cc:requires
           rdf:resource="http://creativecommons.org/ns#Notice" />
        <cc:requires
           rdf:resource="http://creativecommons.org/ns#Attribution" />
        <cc:prohibits
           rdf:resource="http://creativecommons.org/ns#CommercialUse" />
      </cc:License>
    </rdf:RDF>
  </metadata>
  <g
     inkscape:groupmode="layer"
     id="layer2"
     inkscape:label="Camada 2"
     style="display:inline">
    <path
       transform="translate(0,-278.47915)"
       inkscape:connector-curvature="0"
       id="path2460"
       d="m 51.071958,-46.698189 a 12.294398,13.280893 0 0 0 -11.659236,9.1026 16.704346,18.471124 0 0 0 -3.975987,-0.553712 16.704346,18.471124 0 0 0 -16.704405,18.470839 16.704346,18.471124 0 0 0 1.481048,7.547128 20.713386,20.60828 0 0 0 -19.1207975,20.541652 20.713386,20.60828 0 0 0 20.7134645,20.607769 20.713386,20.60828 0 0 0 6.696747,-1.13281 20.980657,15.570701 0 0 0 9.60665,1.74378 20.980657,15.570701 0 0 0 11.889713,-2.76266 68.420998,25.340552 0 0 0 49.715823,7.95267 68.420998,25.340552 0 0 0 68.421152,-25.3402867 68.420998,25.340552 0 0 0 -32.88534,-21.6183773 25.524238,11.143737 0 0 0 1.88206,-4.180584 25.524238,11.143737 0 0 0 -25.52402,-11.143305 25.524238,11.143737 0 0 0 -1.57458,0.0242 26.994225,18.31847 0 0 0 -26.889837,-16.816196 26.994225,18.31847 0 0 0 -20.495902,6.407828 12.294398,13.280893 0 0 0 -11.576553,-8.850535 z"
       style="fill:url(#linearGradient2557);fill-opacity:1;stroke:url(#radialGradient2512);stroke-width:0.28278524;filter:url(#filter2456)" />
  </g>
  <g
     inkscape:label="Camada 1"
     inkscape:groupmode="layer"
     id="layer1"
     transform="translate(0,-278.47915)"
     style="display:inline">
    <path
       style="fill:url(#Wavywhite);fill-opacity:1;stroke:url(#Wavywhite);stroke-width:0.46804792;stroke-miterlimit:4;stroke-dasharray:0.46804792,0.46804792;stroke-opacity:1;filter:url(#filter2502);stroke-dashoffset:0"
       d="m 51.071958,-46.698189 a 12.294398,13.280893 0 0 0 -11.659236,9.1026 16.704346,18.471124 0 0 0 -3.975987,-0.553712 16.704346,18.471124 0 0 0 -16.704405,18.470839 16.704346,18.471124 0 0 0 1.481048,7.547128 20.713386,20.60828 0 0 0 -19.1207975,20.541652 20.713386,20.60828 0 0 0 20.7134645,20.607769 20.713386,20.60828 0 0 0 6.696747,-1.13281 20.980657,15.570701 0 0 0 9.60665,1.74378 20.980657,15.570701 0 0 0 11.889713,-2.76266 68.420998,25.340552 0 0 0 49.715823,7.95267 68.420998,25.340552 0 0 0 68.421152,-25.340287 68.420998,25.340552 0 0 0 -32.88534,-21.618377 25.524238,11.143737 0 0 0 1.88206,-4.180584 25.524238,11.143737 0 0 0 -25.52402,-11.143305 25.524238,11.143737 0 0 0 -1.57458,0.0242 26.994225,18.31847 0 0 0 -26.889837,-16.816196 26.994225,18.31847 0 0 0 -20.495902,6.407828 12.294398,13.280893 0 0 0 -11.576553,-8.850535 z"
       id="path3719"
       inkscape:connector-curvature="0" />
  </g>
</svg>
